<svg data-v-423bf9ae="" xmlns="http://www.w3.org/2000/svg" viewBox="0 0 310 90" class="iconLeft"><!----><!----><!----><g data-v-423bf9ae="" id="32f68be8-2e00-4542-93bc-2fa2921fe519" fill="#E8E8EE" transform="matrix(4.4943822151090735,0,0,4.4943822151090735,108.38201945104333,-0.14606612006488007)"><path d="M0.43 9.11C0.43 9.80 0.85 10.50 1.99 10.82C2.44 10.95 3.67 11.09 3.67 12.01C3.67 12.57 3.16 12.95 2.53 12.95C1.72 12.95 1.08 12.42 0.94 12.12C0.74 11.73 0.97 11.26 0.62 11.26C0.41 11.26 0.36 11.33 0.36 11.69C0.36 11.89 0.38 12.15 0.38 12.53C0.38 12.74 0.41 12.85 0.55 13.01C0.95 13.48 1.83 13.71 2.48 13.71C3.86 13.71 4.61 12.71 4.61 11.82C4.61 11.59 4.55 11.13 4.19 10.71C3.67 10.11 3.01 10.07 2.30 9.87C1.26 9.58 1.19 9.06 1.19 8.86C1.19 8.41 1.60 8.12 2.07 8.12C2.53 8.12 3.04 8.41 3.22 8.67C3.42 8.95 3.37 9.35 3.67 9.35C3.78 9.35 3.99 9.31 3.99 9.13C3.99 9.07 3.81 8.15 3.72 7.66C3.71 7.59 3.67 7.39 3.50 7.39C3.33 7.39 3.28 7.53 3.15 7.53C3.08 7.53 2.87 7.46 2.45 7.46C1.19 7.46 0.43 8.27 0.43 9.11ZM7.87 13.27L7.87 13.29C7.87 13.50 7.98 13.52 8.05 13.52C8.09 13.52 8.68 13.44 9.39 13.44C10.12 13.44 10.70 13.52 10.74 13.52C10.91 13.52 10.96 13.40 10.96 13.23C10.96 13.03 10.84 13.01 10.74 12.99C10.07 12.91 9.67 12.45 9.31 12.01C7.69 10.07 7.69 10.09 7.69 10.02C7.69 9.98 7.73 9.95 7.78 9.90C8.69 8.96 9.18 8.43 9.81 8.26C10.35 8.12 10.63 8.26 10.63 7.90C10.63 7.73 10.57 7.63 10.42 7.63C10.26 7.63 9.80 7.67 8.88 7.67L8.06 7.67C7.91 7.67 7.77 7.71 7.77 7.85L7.77 7.99C7.77 8.19 8.13 8.18 8.13 8.58C8.13 8.92 7.99 8.96 6.75 10.23C6.73 10.26 6.69 10.29 6.66 10.29C6.62 10.29 6.62 10.26 6.62 10.23L6.62 3.63C6.62 3.53 6.61 3.39 6.47 3.39C6.41 3.39 6.41 3.39 5.08 3.98C5.00 4.00 4.80 4.06 4.80 4.21C4.80 4.21 4.80 4.27 4.86 4.33C4.87 4.34 5.28 4.62 5.50 4.77C5.63 4.86 5.67 4.93 5.67 5.11L5.67 12.66C5.63 13.15 4.96 12.77 4.96 13.24C4.96 13.34 5.01 13.50 5.19 13.50C5.31 13.50 5.63 13.44 6.29 13.44C6.94 13.44 7.27 13.50 7.36 13.50C7.45 13.50 7.56 13.45 7.56 13.26C7.56 13.03 7.39 12.99 7.27 12.96C6.73 12.89 6.62 12.91 6.62 12.63L6.62 11.19C6.62 11.13 6.62 11.07 6.64 11.03C6.65 10.98 6.94 10.63 7.03 10.63C7.06 10.63 7.08 10.64 7.08 10.65C7.10 10.67 8.53 12.40 8.53 12.71C8.53 13.13 7.87 12.74 7.87 13.27ZM13.71 7.85C14.60 7.85 15.18 8.85 15.18 9.83C15.18 10.70 14.69 11.38 13.93 11.38C13.06 11.38 12.49 10.44 12.49 9.39C12.49 8.47 13.01 7.85 13.71 7.85ZM12.25 14.67C12.25 14.43 12.35 14.18 12.52 14.01C12.61 13.92 12.66 13.86 12.75 13.86L12.80 13.86C14.25 14.01 15.12 13.89 15.75 14.21C15.90 14.28 16.31 14.53 16.31 15.04C16.31 15.44 15.97 16.06 14.53 16.06C13.24 16.06 12.25 15.51 12.25 14.67ZM11.40 9.56C11.40 9.93 11.48 10.28 11.66 10.58C12.05 11.30 12.52 11.34 12.52 11.48C12.52 11.49 12.52 11.51 12.50 11.52C12.49 11.54 11.70 12.12 11.70 12.84C11.70 13.47 12.22 13.59 12.22 13.68C12.22 13.71 12.21 13.72 12.19 13.73C12.18 13.75 11.47 14.10 11.47 14.95C11.47 15.60 11.91 16.72 14.21 16.72C16.52 16.72 17.12 15.57 17.12 14.80C17.12 14.18 16.73 13.50 15.85 13.24C14.76 12.92 12.42 13.30 12.42 12.46C12.42 12.15 12.80 11.75 13.05 11.75C13.23 11.75 13.40 11.87 13.86 11.87C15.18 11.87 16.18 10.81 16.18 9.52C16.18 8.99 16.03 8.72 16.03 8.64C16.03 8.60 16.06 8.55 16.09 8.53C16.21 8.43 17.09 8.23 17.09 7.69C17.09 7.41 16.83 7.11 16.56 7.11C16.34 7.11 16.23 7.32 16.16 7.43C15.97 7.70 15.69 7.88 15.43 7.88C15.12 7.88 14.67 7.38 13.66 7.38C12.36 7.38 11.40 8.39 11.40 9.56ZM20.17 13.69C21.22 13.69 22.04 13.12 22.48 12.50C22.53 12.45 22.57 12.36 22.57 12.28C22.57 12.14 22.46 12.04 22.33 12.04C22.01 12.04 21.71 12.80 20.62 12.80C19.33 12.80 18.41 11.63 18.41 10.33C18.41 9.16 19.15 8.18 20.01 8.18C20.82 8.18 21.06 9.02 21.70 9.02C21.99 9.02 22.26 8.81 22.26 8.48C22.26 7.95 21.49 7.45 20.48 7.45C18.69 7.45 17.49 8.78 17.49 10.68C17.49 12.40 18.56 13.69 20.17 13.69ZM26.68 13.33C26.68 13.43 26.71 13.52 26.84 13.52C26.88 13.52 27.43 13.44 28.10 13.44C28.80 13.44 29.33 13.52 29.37 13.52C29.48 13.52 29.55 13.47 29.55 13.22C29.55 13.02 29.43 12.98 29.32 12.96C28.97 12.92 28.80 12.91 28.80 12.52C28.74 9.90 28.67 9.46 28.39 8.81C28.07 8.06 27.44 7.53 26.52 7.53C25.56 7.53 24.95 8.05 24.86 8.05C24.84 8.05 24.79 8.04 24.79 7.95L24.81 3.64C24.81 3.42 24.68 3.37 24.60 3.37L24.58 3.37C24.49 3.37 24.47 3.40 22.97 4.27C22.95 4.28 22.75 4.37 22.75 4.54C22.75 4.90 23.67 4.77 23.74 5.12C23.76 5.21 23.80 7.42 23.80 8.55L23.80 8.61C23.80 9.90 23.77 11.19 23.73 12.46C23.72 12.66 23.72 12.88 23.39 12.94C23.00 13.02 22.88 13.01 22.88 13.24C22.88 13.37 22.88 13.52 23.04 13.52C23.09 13.52 23.65 13.44 24.36 13.44C25.05 13.44 25.61 13.52 25.65 13.52C25.77 13.52 25.80 13.36 25.80 13.23C25.80 12.73 24.86 13.17 24.75 12.57C24.72 12.47 24.72 9.20 24.72 9.11C24.72 9.04 24.72 8.99 24.74 8.93C24.81 8.65 25.35 8.25 25.96 8.25C26.40 8.25 26.81 8.47 27.09 8.75C27.44 9.13 27.76 9.67 27.76 11.69C27.76 12.75 27.76 12.87 27.48 12.91C26.87 12.99 26.68 12.94 26.68 13.23ZM30.09 10.56C30.09 12.95 31.64 13.71 32.79 13.71C33.78 13.71 34.69 13.20 35.27 12.46C35.34 12.38 35.36 12.29 35.36 12.24C35.36 12.11 35.27 12.03 35.14 12.03C35 12.03 34.89 12.15 34.82 12.22C34.38 12.64 33.77 12.91 33.15 12.91C31.39 12.91 31.08 11.05 31.08 10.88C31.08 10.75 31.16 10.77 34.06 9.77C34.47 9.63 35.20 9.49 35.20 9.07L35.20 9.06C35.20 8.93 35.14 8.82 35.08 8.75C34.57 8.04 33.64 7.41 32.68 7.41C31.28 7.41 30.09 8.60 30.09 10.56ZM33.84 9.10C33.84 9.16 33.80 9.23 33.71 9.27C33.68 9.28 31.14 10.28 31.09 10.28C31.07 10.28 31.02 10.26 31.02 10.18C31.02 8.93 31.56 8.18 32.37 8.18C33.15 8.18 33.84 8.93 33.84 9.10ZM35.94 9.11C35.94 9.80 36.36 10.50 37.49 10.82C37.94 10.95 39.17 11.09 39.17 12.01C39.17 12.57 38.67 12.95 38.04 12.95C37.23 12.95 36.58 12.42 36.44 12.12C36.25 11.73 36.47 11.26 36.12 11.26C35.91 11.26 35.87 11.33 35.87 11.69C35.87 11.89 35.88 12.15 35.88 12.53C35.88 12.74 35.91 12.85 36.05 13.01C36.46 13.48 37.34 13.71 37.98 13.71C39.37 13.71 40.11 12.71 40.11 11.82C40.11 11.59 40.05 11.13 39.69 10.71C39.17 10.11 38.51 10.07 37.80 9.87C36.76 9.58 36.69 9.06 36.69 8.86C36.69 8.41 37.10 8.12 37.58 8.12C38.04 8.12 38.54 8.41 38.72 8.67C38.92 8.95 38.88 9.35 39.17 9.35C39.28 9.35 39.49 9.31 39.49 9.13C39.49 9.07 39.31 8.15 39.23 7.66C39.21 7.59 39.17 7.39 39.00 7.39C38.84 7.39 38.78 7.53 38.65 7.53C38.58 7.53 38.37 7.46 37.95 7.46C36.69 7.46 35.94 8.27 35.94 9.11ZM40.67 9.11C40.67 9.80 41.09 10.50 42.22 10.82C42.67 10.95 43.90 11.09 43.90 12.01C43.90 12.57 43.40 12.95 42.77 12.95C41.96 12.95 41.31 12.42 41.17 12.12C40.98 11.73 41.20 11.26 40.85 11.26C40.64 11.26 40.60 11.33 40.60 11.69C40.60 11.89 40.61 12.15 40.61 12.53C40.61 12.74 40.64 12.85 40.78 13.01C41.19 13.48 42.07 13.71 42.71 13.71C44.10 13.71 44.84 12.71 44.84 11.82C44.84 11.59 44.79 11.13 44.42 10.71C43.90 10.11 43.25 10.07 42.53 9.87C41.50 9.58 41.43 9.06 41.43 8.86C41.43 8.41 41.83 8.12 42.31 8.12C42.77 8.12 43.27 8.41 43.46 8.67C43.65 8.95 43.61 9.35 43.90 9.35C44.02 9.35 44.23 9.31 44.23 9.13C44.23 9.07 44.04 8.15 43.96 7.66C43.95 7.59 43.90 7.39 43.74 7.39C43.57 7.39 43.51 7.53 43.39 7.53C43.32 7.53 43.11 7.46 42.69 7.46C41.43 7.46 40.67 8.27 40.67 9.11Z"></path></g><!----><g data-v-423bf9ae="" id="e6c76bdb-a64f-43e1-a017-73bc492f11c7" transform="matrix(1.8,0,0,1.8,0,0)" stroke="none" fill="#E8E8EE"><path d="M9.992 4.992h5v5h-5zM19.992 4.992h5v5h-5zM29.992 4.992h5v5h-5zM39.992 4.992h5v5h-5zM4.992 9.992h5v5h-5zM14.992 9.992h5v5h-5zM24.992 9.992h5v5h-5zM34.992 9.992h5v5h-5zM9.992 14.992h5v5h-5zM19.992 14.992h5v5h-5zM29.992 14.992h5v5h-5zM39.992 14.992h5v5h-5zM4.992 19.992h5v5h-5zM14.992 19.992h5v5h-5zM24.992 19.992h5v5h-5zM34.992 19.992h5v5h-5zM9.992 24.992h5v5h-5zM19.992 24.992h5v5h-5zM29.992 24.992h5v5h-5zM39.992 24.992h5v5h-5zM4.992 29.992h5v5h-5zM14.992 29.992h5v5h-5zM24.992 29.992h5v5h-5zM34.992 29.992h5v5h-5zM9.992 34.992h5v5h-5zM19.992 34.992h5v5h-5z"></path><path d="M29.992 34.992h5v5h-5zM39.992 34.992h5v5h-5zM4.992 39.992h5v5h-5zM14.992 39.992h5v5h-5zM24.992 39.992h5v5h-5zM34.992 39.992h5v5h-5z"></path><path d="M0 0v50h50V0H0zm49 49H1V1h48v48z"></path><path d="M4.5 4.5v41h41v-41h-41zm40.182 40.182H5.32V5.32h39.362v39.362z"></path></g><!----></svg>